<svg width="19" height="17" viewBox="0 0 19 17" fill="none" xmlns="http://www.w3.org/2000/svg">
<path d="M15.2916 4.76394V3.00558H13.512V1.77881H15.2916V0H16.5331V1.77881H18.3333V3.00558H16.5331V4.76394H15.2916ZM1.24154 16.5C0.910459 16.5 0.620768 16.3773 0.372461 16.132C0.124154 15.8866 0 15.6004 0 15.2732V4.78439C0 4.47088 0.124154 4.18804 0.372461 3.93587C0.620768 3.68371 0.910459 3.55762 1.24154 3.55762H4.2833L5.79383 1.77881H11.5877V3.00558H6.37321L4.86268 4.78439H1.24154V15.2732H15.3123V6.68587H16.5538V15.2732C16.5538 15.6004 16.4262 15.8866 16.171 16.132C15.9158 16.3773 15.6295 16.5 15.3123 16.5H1.24154ZM8.26655 13.5149C9.26668 13.5149 10.1047 13.1809 10.7807 12.513C11.4566 11.8451 11.7946 11.017 11.7946 10.0288C11.7946 9.04058 11.4566 8.21592 10.7807 7.55483C10.1047 6.89374 9.26668 6.5632 8.26655 6.5632C7.26643 6.5632 6.43184 6.89374 5.76279 7.55483C5.09374 8.21592 4.75922 9.04058 4.75922 10.0288C4.75922 11.017 5.09374 11.8451 5.76279 12.513C6.43184 13.1809 7.26643 13.5149 8.26655 13.5149ZM8.26655 12.2881C7.6113 12.2881 7.06985 12.0734 6.64221 11.6441C6.21457 11.2147 6.00075 10.6763 6.00075 10.0288C6.00075 9.38135 6.21457 8.84634 6.64221 8.42379C7.06985 8.00124 7.6113 7.78996 8.26655 7.78996C8.92181 7.78996 9.46671 8.00124 9.90124 8.42379C10.3358 8.84634 10.553 9.38135 10.553 10.0288C10.553 10.6763 10.3358 11.2147 9.90124 11.6441C9.46671 12.0734 8.92181 12.2881 8.26655 12.2881Z" fill="white"/>
</svg>
